<svg xmlns="http://www.w3.org/2000/svg" viewBox="0 0 512 512" role="img" aria-label="Kniffel 7 – Würfel mit Sieben">
  <defs>
    <radialGradient id="bg" cx=".25" cy=".1" r="1"><stop stop-color="#18304b"/><stop offset="1" stop-color="#060d1a"/></radialGradient>
    <linearGradient id="face" x1="0" y1="0" x2="1" y2="1"><stop stop-color="#53f5e2"/><stop offset=".45" stop-color="#21bfe7"/><stop offset="1" stop-color="#5260ef"/></linearGradient>
    <linearGradient id="side" x1="0" y1="0" x2="0" y2="1"><stop stop-color="#287ab9"/><stop offset="1" stop-color="#292b80"/></linearGradient>
    <linearGradient id="edge" x1="0" y1="0" x2="1" y2="1"><stop stop-color="#d1fffa" stop-opacity=".85"/><stop offset="1" stop-color="#b4cdff" stop-opacity=".1"/></linearGradient>
    <filter id="shadow" x="-.5" y="-.5" width="2" height="2"><feGaussianBlur stdDeviation="15"/></filter>
  </defs>
  <rect width="512" height="512" fill="url(#bg)"/>
  <ellipse cx="263" cy="385" rx="133" ry="28" fill="#020617" opacity=".8" filter="url(#shadow)"/>
  <g transform="rotate(-9 256 256)">
    <rect x="132" y="139" width="270" height="270" rx="64" fill="url(#side)"/>
    <rect x="114" y="108" width="270" height="270" rx="64" fill="url(#face)" stroke="url(#edge)" stroke-width="3"/>
    <path d="M140 180v-9a37 37 0 0 1 37-37h40" fill="none" stroke="#e5fffc" stroke-opacity=".4" stroke-width="5" stroke-linecap="round"/>
    <circle cx="160" cy="331" r="10" fill="#e9ffff" opacity=".8"/>
    <circle cx="337" cy="155" r="10" fill="#e9ffff" opacity=".8"/>
    <path d="M191 186h116v33l-69 103h-49l75-104h-73z" fill="#102756" opacity=".2" transform="translate(0 5)"/>
    <path d="M191 186h116v33l-69 103h-49l75-104h-73z" fill="#fff"/>
  </g>
</svg>
